<svg width="24" height="22" viewBox="0 0 24 22" fill="none" xmlns="http://www.w3.org/2000/svg">
<path d="M1 10.9805C1 10.9805 5 2.84668 12 2.84668C19 2.84668 23 10.9805 23 10.9805C23 10.9805 19 19.1142 12 19.1142C5 19.1142 1 10.9805 1 10.9805Z" stroke="#D1D1D1" stroke-width="2" stroke-linecap="round" stroke-linejoin="round"/>
<path d="M12 14.0308C13.6569 14.0308 15 12.6651 15 10.9806C15 9.29603 13.6569 7.93042 12 7.93042C10.3431 7.93042 9 9.29603 9 10.9806C9 12.6651 10.3431 14.0308 12 14.0308Z" fill="#D1D1D1" stroke="#D1D1D1" stroke-width="2" stroke-linecap="round" stroke-linejoin="round"/>
<rect width="26.7523" height="3.26884" transform="matrix(0.674264 -0.73849 0.727239 0.686384 1.2002 19.7563)" fill="#D1D1D1"/>
</svg>
